<svg
  width="512"
  height="512"
  viewBox="0 0 512 512"
  fill="none"
  xmlns="http://www.w3.org/2000/svg"
>
  <defs>
    <linearGradient id="bg" x1="74" y1="56" x2="434" y2="456" gradientUnits="userSpaceOnUse">
      <stop stop-color="#16283F" />
      <stop offset="1" stop-color="#0A1220" />
    </linearGradient>
    <linearGradient id="paper" x1="134" y1="116" x2="392" y2="396" gradientUnits="userSpaceOnUse">
      <stop stop-color="#FCFEFF" />
      <stop offset="1" stop-color="#EAF3FF" />
    </linearGradient>
    <filter id="shadow" x="84" y="88" width="344" height="350" filterUnits="userSpaceOnUse">
      <feOffset dy="14" />
      <feGaussianBlur stdDeviation="14" />
      <feColorMatrix
        type="matrix"
        values="0 0 0 0 0.0392157 0 0 0 0 0.0705882 0 0 0 0 0.121569 0 0 0 0.28 0"
      />
    </filter>
  </defs>

  <rect x="32" y="32" width="448" height="448" rx="104" fill="url(#bg)" />
  <rect x="48" y="48" width="416" height="416" rx="88" stroke="#233852" stroke-width="2" />

  <g filter="url(#shadow)">
    <path
      d="M166 116H294C311 116 327 123 339 135L397 193C409 205 416 221 416 238V344C416 373 393 396 364 396H166C137 396 114 373 114 344V168C114 139 137 116 166 116Z"
      fill="url(#paper)"
    />
    <path d="M314 116V184C314 199 326 211 341 211H409" fill="#D9E8FA" />
  </g>

  <rect x="196" y="184" width="40" height="140" rx="20" fill="#5CE1E6" />
  <rect x="196" y="284" width="118" height="40" rx="20" fill="#5CE1E6" />
  <rect x="196" y="340" width="84" height="14" rx="7" fill="#5CE1E6" opacity="0.42" />
</svg>
