<?xml version="1.0" encoding="UTF-8" standalone="no"?>
<!-- Created with Inkscape (http://www.inkscape.org/) -->

<svg
   width="41.285992mm"
   height="41.286015mm"
   viewBox="0 0 41.285992 41.286015"
   version="1.1"
   id="svg1"
   xml:space="preserve"
   xmlns="http://www.w3.org/2000/svg"
   xmlns:svg="http://www.w3.org/2000/svg"><defs
     id="defs1" /><g
     id="layer1"
     transform="translate(-44.024594,-139.92181)"><path
       style="fill:#c83737;stroke-width:0.31183"
       id="rect2515"
       width="41.285999"
       height="41.285999"
       x="91.63163"
       y="138.39655"
       d="m 101.63163,138.39655 h 21.286 a 10,10 45 0 1 10,10 v 21.28599 a 10,10 135 0 1 -10,10 h -21.286 a 10,10 45 0 1 -10,-10 v -21.28599 a 10,10 135 0 1 10,-10 z"
       transform="translate(-47.607038,1.525267)" /><path
       style="fill:#ffffff;stroke-width:0.0215705"
       d="m 55.136133,174.39034 c -0.82373,-0.0691 -1.325187,-0.31615 -1.582865,-0.77987 -0.167172,-0.30085 -0.241152,-0.6472 -0.272952,-1.27783 -0.01569,-0.31095 -0.02069,-4.21334 -0.01598,-12.4462 l 0.0069,-11.99321 0.04687,-0.19414 c 0.141552,-0.58625 0.387061,-1.03668 0.782679,-1.43594 0.329639,-0.33267 0.720204,-0.56336 1.158825,-0.68446 l 0.210902,-0.0582 4.087617,1.6e-4 c 4.201292,1.6e-4 4.611256,0.007 5.241639,0.088 0.657815,0.0845 0.918874,0.21616 1.392322,0.70248 0.288578,0.29642 0.408128,0.46106 0.547992,0.75466 0.266107,0.55862 0.338272,1.08952 0.317722,2.33742 -0.0145,0.88068 -0.04563,1.31449 -0.165621,2.30805 -0.114057,0.94445 -0.153961,2.0553 -0.08911,2.48061 0.105722,0.69333 0.376592,1.12121 0.950883,1.50204 0.34824,0.23093 0.410747,0.24525 1.068716,0.24483 0.72027,-5.3e-4 1.294093,-0.0753 2.461527,-0.32095 1.820198,-0.38303 2.759464,-0.46144 3.384947,-0.28256 0.662186,0.18937 1.269997,0.68065 1.58011,1.27714 0.181168,0.34848 0.206902,0.56595 0.244499,2.06617 0.03564,1.42214 0.03684,4.9423 0.0019,5.55442 -0.05347,0.93652 -0.101433,1.43284 -0.18913,1.95709 -0.16297,0.97424 -0.384566,1.63889 -0.882922,2.64821 -1.405557,2.84668 -3.434223,4.44231 -6.525424,5.13255 -1.010579,0.22565 -1.79473,0.31413 -3.580707,0.40405 -0.594437,0.0299 -9.841465,0.044 -10.181293,0.0155 z m 11.3461,-5.34687 c 0.934067,-0.0289 1.200851,-0.0628 1.645502,-0.20967 0.957874,-0.31629 1.877465,-1.04698 2.410524,-1.91536 0.180176,-0.29352 0.39665,-0.81066 0.443193,-1.05877 l 0.01381,-0.0737 h -4.521427 -4.521427 l 1e-4,-0.33973 c 5.29e-4,-1.47585 -0.04798,-8.77798 -0.06503,-9.8092 -0.03357,-2.03021 -0.05142,-2.18288 -0.317555,-2.71599 -0.4381,-0.87761 -1.066287,-1.50651 -1.780231,-1.78225 -0.21749,-0.084 -0.373975,-0.11903 -0.716946,-0.16045 -0.154231,-0.0186 -0.307113,-0.0383 -0.339736,-0.0436 l -0.05932,-0.01 v 9.06987 9.06987 l 3.575314,-5.3e-4 c 1.966426,-2.5e-4 3.871373,-0.01 4.233217,-0.0208 z"
       id="path2508" /><path
       style="fill:#ffffff;stroke-width:0.0215705"
       d="m 76.152468,155.28739 c -0.292462,-0.34734 -0.55128,-0.56064 -0.858282,-0.70732 -0.376076,-0.17969 -0.63528,-0.20107 -3.138903,-0.25892 -2.274583,-0.0525 -2.404877,-0.0668 -2.820058,-0.30935 -0.516581,-0.30173 -0.867133,-0.68777 -1.12934,-1.24365 -0.119298,-0.25291 -0.178991,-0.4616 -0.212857,-0.74417 -0.01209,-0.10084 -0.03162,-0.9065 -0.0434,-1.79035 -0.03158,-2.36825 -0.05926,-2.89306 -0.175546,-3.32718 -0.06626,-0.24736 -0.103259,-0.32686 -0.280268,-0.60214 -0.08507,-0.1323 -0.155771,-0.25601 -0.15711,-0.27492 -0.0067,-0.0949 0.380998,0.0863 0.623113,0.29126 1.250696,1.05863 6.588442,6.31671 7.556804,7.44403 0.08354,0.0973 0.188164,0.23315 0.232492,0.30198 0.279543,0.4341 0.636577,1.3439 0.527388,1.3439 -0.01119,0 -0.06699,-0.0554 -0.124031,-0.12317 z"
       id="path2509" /><path
       style="fill:#ffffff;stroke-width:0.0107853"
       d="m 63.101054,177.20758 v -2.04381 l 0.800806,6e-5 c 0.440442,4e-5 0.905153,0.005 1.032688,0.0109 0.754472,0.0354 1.095316,0.12334 1.447987,0.37361 0.106821,0.0758 0.381929,0.34627 0.458947,0.4512 0.408109,0.55601 0.498303,1.24591 0.25468,1.94804 -0.184994,0.53317 -0.54732,0.87787 -1.194189,1.13608 -0.367742,0.1468 -0.604679,0.16719 -1.946188,0.16749 l -0.854731,1.9e-4 z m 2.032622,1.18733 c 0.495149,-0.0822 0.791466,-0.27394 0.968256,-0.6265 0.210706,-0.42019 0.17804,-0.86084 -0.09434,-1.27266 -0.145325,-0.21971 -0.31409,-0.34952 -0.544748,-0.41899 -0.218332,-0.0658 -0.40462,-0.0823 -0.930048,-0.0824 l -0.396356,-1.1e-4 v 1.21442 1.21443 l 0.444892,-0.005 c 0.343836,-0.004 0.469299,-0.009 0.552344,-0.023 z"
       id="path2510" /><path
       style="fill:#ffffff;stroke-width:0.0107853"
       d="m 67.932854,177.20758 v -2.04381 h 1.574649 1.574646 v 0.41524 0.41523 h -1.105487 -1.10549 v 0.47994 0.47995 h 0.94371 0.943711 v 0.41523 0.41523 h -0.943711 -0.94371 v 0.7334 0.7334 h -0.469159 -0.469159 z"
       id="path2511" /><path
       style="fill:#ffffff;stroke-width:0.0107853"
       d="m 58.786946,177.2066 v -2.04479 l 0.957194,0.005 c 0.771683,0.004 0.991679,0.008 1.13515,0.0225 0.602718,0.0591 0.882517,0.17006 1.186775,0.4708 0.293116,0.28974 0.344117,0.45402 0.330795,1.06557 -0.0105,0.48221 -0.05939,0.6082 -0.340556,0.87762 -0.283712,0.27186 -0.584824,0.40365 -1.069162,0.46795 -0.102997,0.0137 -0.256363,0.0192 -0.649814,0.0232 l -0.514996,0.005 v 0.57578 0.57577 H 59.30464 58.786946 Z m 1.915515,0.0491 c 0.198765,-0.016 0.327715,-0.0447 0.430281,-0.0957 0.12946,-0.0644 0.198559,-0.13958 0.243612,-0.26524 0.03314,-0.0924 0.0421,-0.34059 0.01558,-0.43178 -0.07117,-0.24479 -0.255177,-0.3753 -0.625898,-0.4439 -0.06274,-0.0116 -0.203234,-0.0175 -0.514996,-0.0215 l -0.428715,-0.006 v 0.63745 0.63744 h 0.370526 c 0.20379,0 0.433112,-0.005 0.509603,-0.0112 z"
       id="path2512" /></g></svg>
