<?xml version="1.0" encoding="UTF-8" standalone="no"?>
<!-- Created with Inkscape (http://www.inkscape.org/) -->

<svg
   width="32.864353mm"
   height="43.03907mm"
   viewBox="0 0 32.864353 43.03907"
   version="1.1"
   id="svg1"
   xml:space="preserve"
   xmlns="http://www.w3.org/2000/svg"
   xmlns:svg="http://www.w3.org/2000/svg"><defs
     id="defs1"><filter
       style="color-interpolation-filters:sRGB"
       id="filter3533"
       x="-0.57448494"
       y="-0.47543582"
       width="2.0499208"
       height="2.0499208"><feFlood
         result="flood"
         in="SourceGraphic"
         flood-opacity="0.498039"
         flood-color="rgb(94,94,94)"
         id="feFlood3532" /><feGaussianBlur
         result="blur"
         in="SourceGraphic"
         stdDeviation="2.000000"
         id="feGaussianBlur3532" /><feOffset
         result="offset"
         in="blur"
         dx="-1.000000"
         dy="1.000000"
         id="feOffset3532" /><feComposite
         result="comp1"
         operator="in"
         in="flood"
         in2="offset"
         id="feComposite3532" /><feComposite
         result="comp2"
         operator="out"
         in="comp1"
         in2="SourceGraphic"
         id="feComposite3533" /></filter></defs><g
     id="layer1"
     transform="translate(-143.99781,-202.22112)"><path
       style="fill:#f5f5ed;fill-opacity:1;stroke-width:0.261535"
       id="rect3458"
       width="32.864349"
       height="43.03907"
       x="84.463127"
       y="213.17894"
       d="m 89.463127,213.17894 17.864353,0 10,10 v 28.03907 a 5,5 135 0 1 -5,5 H 89.463127 a 5,5 45 0 1 -5,-5 v -33.03907 a 5,5 135 0 1 5,-5 z"
       transform="translate(59.534671,-10.957831)" /><path
       d="m 150.97586,237.50322 c -0.764,-0.0566 -1.22815,-0.29298 -1.46696,-0.72276 -0.15493,-0.27881 -0.2235,-0.59981 -0.25297,-1.18426 -0.0139,-0.28819 -0.0191,-3.90485 -0.0155,-11.53491 l 0.006,-11.11508 0.0435,-0.17993 c 0.13128,-0.54332 0.35871,-0.96078 0.72536,-1.33079 0.30552,-0.30834 0.66749,-0.52218 1.074,-0.63435 l 0.19544,-0.054 3.78834,1.6e-4 c 3.89368,1.3e-4 4.27363,0.006 4.85785,0.0816 0.60965,0.0784 0.85159,0.20034 1.29037,0.65105 0.26746,0.27472 0.37826,0.42731 0.50787,0.69942 0.24663,0.5177 0.3135,1.00973 0.29445,2.16626 -0.0139,0.81621 -0.0422,1.21825 -0.15348,2.13907 -0.10564,0.87529 -0.14269,1.90481 -0.0826,2.29898 0.0979,0.64257 0.34902,1.03911 0.88125,1.39206 0.32275,0.21402 0.38068,0.2273 0.99048,0.22691 0.66753,-4.9e-4 1.19933,-0.0697 2.2813,-0.29746 1.68693,-0.35497 2.55741,-0.42765 3.13711,-0.26187 0.6137,0.17551 1.177,0.63082 1.46441,1.18364 0.1679,0.32296 0.19177,0.52451 0.2266,1.91488 0.033,1.31801 0.034,4.58042 0.001,5.14773 -0.0495,0.86796 -0.0939,1.32794 -0.1753,1.8138 -0.15102,0.9029 -0.3564,1.51889 -0.81827,2.4543 -1.30264,2.63826 -3.18276,4.11705 -6.04763,4.75676 -0.93658,0.20912 -1.66331,0.29113 -3.31854,0.37446 -0.5509,0.0278 -9.12065,0.0378 -9.43583,0.0139 z m 10.51536,-4.95536 c 0.86568,-0.0268 1.11291,-0.0582 1.52501,-0.19432 0.88776,-0.29314 1.74002,-0.97033 2.23404,-1.77513 0.16697,-0.27203 0.36768,-0.75129 0.41074,-0.98124 l 0.0123,-0.0683 h -4.19037 -4.19037 l 10e-5,-0.31485 c 4e-4,-1.36779 -0.0444,-8.13526 -0.0604,-9.09098 -0.0311,-1.88156 -0.0477,-2.02306 -0.2943,-2.51714 -0.40602,-0.81336 -0.98823,-1.3962 -1.64989,-1.65175 -0.20156,-0.0779 -0.3466,-0.11035 -0.66446,-0.14872 -0.143,-0.0173 -0.28463,-0.0355 -0.31485,-0.0404 l -0.0549,-0.01 v 8.40578 8.40577 l 3.31354,-4.7e-4 c 1.82244,-2.4e-4 3.58791,-0.01 3.92326,-0.0193 z m 8.9622,-12.74888 c -0.27107,-0.32192 -0.51092,-0.51961 -0.79544,-0.65555 -0.34855,-0.16652 -0.58878,-0.18634 -2.90908,-0.23995 -2.10805,-0.0486 -2.2288,-0.0618 -2.61358,-0.28669 -0.47875,-0.27965 -0.80365,-0.63742 -1.04666,-1.1526 -0.11059,-0.23439 -0.16587,-0.42782 -0.19725,-0.68969 -0.0109,-0.0934 -0.0293,-0.84013 -0.0402,-1.65926 -0.0293,-2.19484 -0.0549,-2.68124 -0.16268,-3.08357 -0.0615,-0.22924 -0.0956,-0.30292 -0.25976,-0.55806 -0.0788,-0.12263 -0.14439,-0.23726 -0.14562,-0.25477 -0.006,-0.0879 0.35308,0.0799 0.57747,0.26992 1.15914,0.98113 6.10605,5.85422 7.00351,6.89899 0.0775,0.0902 0.17439,0.21608 0.21547,0.27988 0.25906,0.4023 0.58998,1.24549 0.48877,1.24549 -0.0109,0 -0.0622,-0.0514 -0.11493,-0.11421 z"
       style="fill:#c83737;fill-opacity:0.102041;stroke-width:0.019991"
       id="path1" /><rect
       style="fill:#d12e2e;fill-opacity:1;stroke-width:0.278837"
       id="rect1"
       width="32.861214"
       height="9.9917316"
       x="144.00101"
       y="224.76418" /><path
       d="m 157.31942,229.82889 v -3.75519 l 1.47134,1e-4 c 0.80924,7e-5 1.66309,0.009 1.89742,0.0201 1.38622,0.0651 2.01249,0.22662 2.66046,0.68645 0.19627,0.13923 0.70174,0.63622 0.84325,0.82901 0.74983,1.02158 0.91556,2.28917 0.46793,3.57923 -0.33989,0.97962 -1.00562,1.61295 -2.19414,2.08738 -0.67567,0.26973 -1.111,0.30719 -3.57583,0.30774 l -1.57043,3.6e-4 z m 3.73463,2.18154 c 0.90977,-0.15102 1.4542,-0.50332 1.77901,-1.1511 0.38715,-0.77203 0.32713,-1.58166 -0.17325,-2.33832 -0.26701,-0.40369 -0.5771,-0.6422 -1.00089,-0.76984 -0.40116,-0.12092 -0.74342,-0.15121 -1.70882,-0.15139 l -0.72826,-2e-4 v 2.23131 2.23134 l 0.81743,-0.009 c 0.63175,-0.007 0.86226,-0.0166 1.01485,-0.0422 z m 5.14309,-2.18154 v -3.75519 h 2.89317 2.89318 v 0.76294 0.76292 h -2.03117 -2.03118 v 0.88182 0.88184 h 1.73393 1.73394 v 0.76292 0.76293 h -1.73394 -1.73393 v 1.34751 1.34751 h -0.862 -0.862 z m -16.80427,-0.001 v -3.757 l 1.7587,0.009 c 1.41786,0.007 1.82206,0.0147 2.08567,0.0413 1.10741,0.10861 1.62149,0.31246 2.18053,0.86504 0.53854,0.53235 0.63225,0.83419 0.60778,1.95782 -0.0194,0.886 -0.10919,1.11748 -0.62571,1.6125 -0.52129,0.49951 -1.07454,0.74165 -1.96445,0.85979 -0.18923,0.0252 -0.47101,0.0353 -1.19393,0.0427 l -0.94623,0.009 v 1.05791 1.05789 h -0.95119 -0.95117 z m 3.51946,0.0903 c 0.36521,-0.0295 0.60215,-0.0821 0.79058,-0.17583 0.23786,-0.11828 0.36483,-0.25646 0.44761,-0.48734 0.0608,-0.16977 0.0774,-0.62579 0.0287,-0.79332 -0.13088,-0.44978 -0.46886,-0.68958 -1.15,-0.81561 -0.1152,-0.0214 -0.37342,-0.0321 -0.94624,-0.0396 l -0.78769,-0.0117 v 1.17122 1.1712 h 0.68077 c 0.37445,0 0.7958,-0.009 0.93634,-0.0205 z"
       style="fill:#ffffff;fill-opacity:1;stroke-width:0.0198164"
       id="path1-3" /><path
       style="fill:#f5f5ed;fill-opacity:1;stroke-width:0.264583;filter:url(#filter3533)"
       id="rect3459"
       width="10.095973"
       height="10.095998"
       x="183.04657"
       y="196.54973"
       transform="translate(-16.279163,5.6814365)"
       d="m 183.04657,196.54973 h 0.096 l 10,10 v 0.096 h -5.09597 a 5,5 45 0 1 -5,-5 z" /></g></svg>
