<?xml version="1.0" encoding="UTF-8" standalone="no"?>
<!-- Created with Inkscape (http://www.inkscape.org/) -->

<svg
   width="32.864353mm"
   height="43.03907mm"
   viewBox="0 0 32.864353 43.03907"
   version="1.1"
   id="svg1"
   xml:space="preserve"
   xmlns="http://www.w3.org/2000/svg"
   xmlns:svg="http://www.w3.org/2000/svg"><defs
     id="defs1"><filter
       style="color-interpolation-filters:sRGB"
       id="filter3533"
       x="-0.57448494"
       y="-0.47543582"
       width="2.0499208"
       height="2.0499208"><feFlood
         result="flood"
         in="SourceGraphic"
         flood-opacity="0.498039"
         flood-color="rgb(94,94,94)"
         id="feFlood3532" /><feGaussianBlur
         result="blur"
         in="SourceGraphic"
         stdDeviation="2.000000"
         id="feGaussianBlur3532" /><feOffset
         result="offset"
         in="blur"
         dx="-1.000000"
         dy="1.000000"
         id="feOffset3532" /><feComposite
         result="comp1"
         operator="in"
         in="flood"
         in2="offset"
         id="feComposite3532" /><feComposite
         result="comp2"
         operator="out"
         in="comp1"
         in2="SourceGraphic"
         id="feComposite3533" /></filter></defs><g
     id="layer1"
     transform="translate(-143.99781,-202.22112)"><path
       style="fill:#f5f5ed;fill-opacity:1;stroke-width:0.261535"
       id="rect3458"
       width="32.864349"
       height="43.03907"
       x="84.463127"
       y="213.17894"
       d="m 89.463127,213.17894 17.864353,0 10,10 v 28.03907 a 5,5 135 0 1 -5,5 H 89.463127 a 5,5 45 0 1 -5,-5 v -33.03907 a 5,5 135 0 1 5,-5 z"
       transform="translate(59.534671,-10.957831)" /><path
       d="m 153.2784,232.40094 c -0.63282,-0.0469 -1.01728,-0.24268 -1.21508,-0.59866 -0.12833,-0.23094 -0.18513,-0.49682 -0.20954,-0.98092 -0.0115,-0.23871 -0.0158,-3.23438 -0.0128,-9.55433 l 0.005,-9.20659 0.036,-0.14904 c 0.10874,-0.45003 0.29712,-0.79581 0.60081,-1.10229 0.25306,-0.25539 0.55288,-0.43252 0.88959,-0.52543 l 0.16189,-0.0447 3.13787,1.3e-4 c 3.22512,1.1e-4 3.53983,0.005 4.02374,0.0676 0.50497,0.0649 0.70537,0.16594 1.06881,0.53926 0.22154,0.22755 0.31331,0.35394 0.42067,0.57933 0.20428,0.42881 0.25967,0.83636 0.24389,1.79431 -0.0115,0.67606 -0.035,1.00907 -0.12713,1.77178 -0.0875,0.725 -0.11819,1.57775 -0.0684,1.90424 0.0811,0.53224 0.28909,0.86069 0.72994,1.15304 0.26733,0.17727 0.31531,0.18827 0.82041,0.18795 0.55291,-4.1e-4 0.9934,-0.0577 1.88959,-0.24639 1.39728,-0.29402 2.1183,-0.35422 2.59846,-0.2169 0.50833,0.14537 0.97491,0.5225 1.21297,0.9804 0.13907,0.26751 0.15884,0.43445 0.18769,1.58609 0.0273,1.09171 0.0282,3.79395 0.001,4.26385 -0.041,0.71893 -0.0778,1.09993 -0.1452,1.50237 -0.12509,0.74787 -0.2952,1.25809 -0.67777,2.03289 -1.07897,2.18526 -2.63627,3.41014 -5.00923,3.94001 -0.77577,0.17321 -1.37772,0.24114 -2.74874,0.31016 -0.45631,0.023 -7.55461,0.0313 -7.81567,0.0115 z m 8.70984,-4.10451 c 0.71704,-0.0222 0.92182,-0.0482 1.26316,-0.16096 0.73533,-0.2428 1.44125,-0.80372 1.85045,-1.47033 0.1383,-0.22532 0.30455,-0.62229 0.34021,-0.81276 l 0.0102,-0.0566 h -3.47087 -3.47087 l 8e-5,-0.26079 c 3.3e-4,-1.13293 -0.0368,-6.73841 -0.05,-7.53003 -0.0258,-1.55849 -0.0395,-1.67569 -0.24377,-2.08494 -0.33631,-0.6737 -0.81855,-1.15647 -1.3666,-1.36814 -0.16695,-0.0645 -0.28709,-0.0914 -0.55037,-0.12318 -0.11845,-0.0143 -0.23576,-0.0294 -0.26079,-0.0335 l -0.0455,-0.008 v 6.96248 6.96248 l 2.7446,-3.9e-4 c 1.50952,-2e-4 2.97185,-0.008 3.24962,-0.016 z m 7.42336,-10.55986 c -0.22452,-0.26665 -0.42319,-0.43039 -0.65886,-0.54299 -0.2887,-0.13793 -0.48768,-0.15435 -2.40958,-0.19875 -1.74609,-0.0403 -1.84611,-0.0512 -2.16482,-0.23747 -0.39655,-0.23163 -0.66566,-0.52797 -0.86695,-0.95469 -0.0916,-0.19415 -0.13739,-0.35436 -0.16338,-0.57127 -0.009,-0.0774 -0.0243,-0.69588 -0.0333,-1.37436 -0.0243,-1.81798 -0.0455,-2.22086 -0.13475,-2.55411 -0.0509,-0.18988 -0.0792,-0.25091 -0.21516,-0.46224 -0.0653,-0.10158 -0.1196,-0.19652 -0.12062,-0.21103 -0.005,-0.0728 0.29246,0.0662 0.47832,0.22358 0.96011,0.81266 5.05762,4.84903 5.80099,5.71441 0.0642,0.0747 0.14444,0.17898 0.17847,0.23182 0.21458,0.33323 0.48868,1.03164 0.40485,1.03164 -0.009,0 -0.0515,-0.0426 -0.0952,-0.0946 z"
       style="fill:#c83737;fill-opacity:1;stroke-width:0.0165585"
       id="path1" /><path
       d="m 157.88069,237.40146 v -2.56215 l 1.00389,7e-5 c 0.55214,5e-5 1.13472,0.006 1.2946,0.0137 0.94581,0.0444 1.37311,0.15462 1.81522,0.46836 0.13391,0.095 0.47879,0.43409 0.57534,0.56563 0.51161,0.69702 0.62468,1.56189 0.31927,2.44209 -0.23191,0.66839 -0.68613,1.10051 -1.49705,1.42421 -0.46101,0.18403 -0.75803,0.20959 -2.43977,0.20997 l -1.0715,2.4e-4 z m 2.54812,1.48845 c 0.62073,-0.10304 0.99219,-0.34341 1.21381,-0.78539 0.26415,-0.52675 0.2232,-1.07916 -0.11821,-1.59542 -0.18218,-0.27544 -0.39375,-0.43817 -0.6829,-0.52526 -0.27371,-0.0825 -0.50723,-0.10317 -1.16592,-0.10329 l -0.49689,-1.4e-4 v 1.52241 1.52243 l 0.55773,-0.006 c 0.43104,-0.005 0.58832,-0.0113 0.69243,-0.0288 z m 3.5091,-1.48845 v -2.56215 h 1.974 1.974 v 0.52055 0.52054 h -1.38586 -1.38586 v 0.60166 0.60167 h 1.18305 1.18306 v 0.52054 0.52054 h -1.18306 -1.18305 v 0.9194 0.9194 h -0.58814 -0.58814 z m -11.46546,-10e-4 v -2.56338 l 1.19995,0.006 c 0.9674,0.005 1.24318,0.01 1.42304,0.0282 0.75558,0.0741 1.10634,0.21319 1.48777,0.59021 0.36744,0.36322 0.43138,0.56916 0.41468,1.33581 -0.0132,0.60451 -0.0745,0.76245 -0.42692,1.1002 -0.35567,0.34081 -0.73315,0.50602 -1.34033,0.58663 -0.12911,0.0172 -0.32137,0.0241 -0.81461,0.0291 l -0.64561,0.006 v 0.72181 0.72179 h -0.64899 -0.64898 z m 2.40131,0.0616 c 0.24918,-0.0201 0.41084,-0.056 0.53941,-0.11997 0.16229,-0.0807 0.24892,-0.17498 0.3054,-0.33251 0.0415,-0.11583 0.0528,-0.42697 0.0196,-0.54128 -0.0893,-0.30688 -0.3199,-0.47049 -0.78464,-0.55648 -0.0786,-0.0146 -0.25478,-0.0219 -0.64561,-0.027 l -0.53744,-0.008 v 0.79912 0.7991 h 0.46449 c 0.25548,0 0.54297,-0.006 0.63886,-0.014 z"
       style="fill:#c83737;fill-opacity:1;stroke-width:0.0135206"
       id="path1-3" /><path
       style="fill:#f5f5ed;fill-opacity:1;stroke-width:0.264583;filter:url(#filter3533)"
       id="rect3459"
       width="10.095973"
       height="10.095998"
       x="183.04657"
       y="196.54973"
       transform="translate(-16.279163,5.6814365)"
       d="m 183.04657,196.54973 h 0.096 l 10,10 v 0.096 h -5.09597 a 5,5 45 0 1 -5,-5 z" /></g></svg>
